<?xml version="1.0" standalone="no"?>
<!DOCTYPE svg PUBLIC "-//W3C//DTD SVG 20010904//EN"
 "http://www.w3.org/TR/2001/REC-SVG-20010904/DTD/svg10.dtd">
<svg version="1.0" xmlns="http://www.w3.org/2000/svg"
 width="512.000000pt" height="512.000000pt" viewBox="0 0 512.000000 512.000000"
 preserveAspectRatio="xMidYMid meet">

<g transform="translate(0.000000,512.000000) scale(0.100000,-0.100000)"
fill="#B4B9BB" stroke="none">
<path d="M1720 5086 c-484 -187 -860 -627 -999 -1171 -47 -184 -56 -261 -56
-485 1 -179 5 -235 23 -334 111 -590 506 -1095 1016 -1300 49 -20 105 -36 126
-36 43 0 83 27 106 72 27 53 12 87 -88 200 -233 264 -355 470 -452 763 -170
514 -127 1084 119 1575 91 182 192 323 356 497 70 74 89 116 74 165 -14 46
-71 88 -117 88 -13 -1 -61 -16 -108 -34z"/>
<path d="M3140 4834 c-763 -120 -1363 -655 -1520 -1356 -27 -118 -42 -296 -29
-341 14 -52 60 -87 113 -87 60 0 85 23 147 133 155 276 333 484 564 657 274
206 586 339 931 397 162 27 485 25 654 -5 199 -34 369 -90 570 -186 82 -39
116 -44 160 -21 66 34 78 115 28 191 -49 74 -232 252 -333 325 -181 128 -418
230 -655 279 -139 30 -485 37 -630 14z"/>
<path d="M3180 3863 c-69 -5 -208 -32 -284 -54 -106 -32 -146 -92 -113 -172
21 -49 48 -63 160 -87 388 -79 648 -200 944 -438 321 -259 563 -636 682 -1062
54 -197 81 -477 62 -660 -6 -58 -14 -144 -18 -192 l-6 -87 36 -36 c30 -30 42
-35 80 -35 58 0 90 26 151 125 342 547 316 1275 -66 1865 -119 185 -310 385
-489 512 -322 231 -752 351 -1139 321z"/>
<path d="M3684 2811 c-50 -30 -59 -66 -45 -179 42 -340 17 -621 -84 -928 -98
-299 -251 -553 -469 -781 -295 -309 -647 -503 -1077 -593 -80 -17 -155 -39
-169 -49 -55 -40 -56 -135 -1 -181 53 -45 253 -87 456 -96 391 -18 811 130
1150 406 92 76 246 236 316 330 274 369 407 810 371 1233 -19 222 -62 391
-148 574 -57 125 -147 261 -180 273 -39 15 -86 12 -120 -9z"/>
<path d="M51 2654 c-43 -36 -51 -74 -40 -203 24 -299 130 -578 316 -829 215
-292 559 -536 916 -653 509 -166 1057 -112 1490 147 165 99 375 287 447 401
54 85 29 168 -59 194 -36 11 -46 8 -164 -45 -236 -104 -400 -152 -620 -181
-639 -83 -1301 154 -1754 628 -123 128 -223 269 -327 459 -46 84 -75 108 -132
108 -31 0 -51 -7 -73 -26z"/>
</g>
</svg>
